<?xml version="1.0" encoding="iso-8859-1"?>
<!-- Uploaded to: SVG Repo, www.svgrepo.com, Generator: SVG Repo Mixer Tools -->
<svg version="1.1" id="Layer_1" xmlns="http://www.w3.org/2000/svg" xmlns:xlink="http://www.w3.org/1999/xlink" 
	 viewBox="0 0 512 512" xml:space="preserve">
<path style="fill:#FF8766;" d="M77.682,0L22.22,74.528v382.011C22.22,487.169,47.051,512,77.682,512l0,0
	c30.631,0,55.462-24.831,55.462-55.462V74.528L77.682,0z"/>
<rect x="22.22" y="375.159" style="fill:#E67151;" width="110.921" height="50.793"/>
<polygon style="fill:#FFE4B3;" points="22.22,74.528 40.708,103.232 59.195,74.528 77.682,103.232 96.17,74.528 114.656,103.232 
	133.143,74.528 77.682,0 "/>
<polygon style="fill:#FF8766;" points="77.682,0 49.67,37.641 105.693,37.641 "/>
<path style="fill:#56D676;" d="M255.998,0l-55.462,74.528v382.011c0,30.631,24.831,55.462,55.462,55.462l0,0
	c30.631,0,55.462-24.831,55.462-55.462V74.528L255.998,0z"/>
<rect x="200.542" y="375.159" style="fill:#3FB35B;" width="110.921" height="50.793"/>
<polygon style="fill:#FFE4B3;" points="200.538,74.528 219.025,103.232 237.511,74.528 255.998,103.232 274.486,74.528 
	292.973,103.232 311.46,74.528 255.998,0 "/>
<polygon style="fill:#56D676;" points="255.998,0 227.988,37.641 284.01,37.641 "/>
<path style="fill:#9180FF;" d="M434.316,0l-55.462,74.528v382.011c0,30.631,24.831,55.462,55.462,55.462l0,0
	c30.631,0,55.462-24.831,55.462-55.462V74.528L434.316,0z"/>
<g>
	<path style="opacity:0.15;fill:#293133;enable-background:new    ;" d="M77.682,0L22.22,74.528v382.011
		C22.22,487.169,47.051,512,77.682,512l0,0c5.235,0,10.293-0.741,15.094-2.096c-23.292-6.575-40.368-27.969-40.368-53.365V74.528
		L77.682,0z"/>
	<path style="opacity:0.15;fill:#293133;enable-background:new    ;" d="M255.998,0l-55.462,74.528v382.011
		c0,30.631,24.831,55.462,55.462,55.462l0,0c5.235,0,10.293-0.741,15.094-2.096c-23.292-6.575-40.368-27.969-40.368-53.365V74.528
		L255.998,0z"/>
</g>
<rect x="378.859" y="375.159" style="fill:#7162D9;" width="110.921" height="50.793"/>
<polygon style="fill:#FFE4B3;" points="378.854,74.528 397.341,103.232 415.828,74.528 434.316,103.232 452.803,74.528 
	471.29,103.232 489.778,74.528 434.316,0 "/>
<polygon style="fill:#9180FF;" points="434.316,0 406.305,37.641 462.328,37.641 "/>
<path style="opacity:0.15;fill:#293133;enable-background:new    ;" d="M434.316,0l-55.462,74.528v382.011
	c0,30.631,24.831,55.462,55.462,55.462l0,0c5.235,0,10.293-0.741,15.094-2.096c-23.292-6.575-40.368-27.969-40.368-53.365V74.528
	L434.316,0z"/>
</svg>